<svg width="656" height="645" viewBox="0 0 656 645" fill="none" xmlns="http://www.w3.org/2000/svg">
<path fill-rule="evenodd" clip-rule="evenodd" d="M529.412 151.369L630.501 124.001L572.772 220.476L529.412 151.369ZM549.845 158.587L572.677 193.108L603.563 142.976L549.845 158.587Z" fill="#D7F0F7"/>
<path d="M583.951 190.004L588.246 194.609" stroke="#6CA3B7" stroke-width="1.1669" stroke-linecap="round" stroke-linejoin="round"/>
<path d="M594.089 178.085L596.677 180.533" stroke="#6CA3B7" stroke-width="1.1669" stroke-linecap="round" stroke-linejoin="round"/>
<path d="M600.214 162.799L604.509 167.404" stroke="#6CA3B7" stroke-width="1.1669" stroke-linecap="round" stroke-linejoin="round"/>
<path d="M609.848 151.73L612.438 154.179" stroke="#6CA3B7" stroke-width="1.1669" stroke-linecap="round" stroke-linejoin="round"/>
<path d="M616.321 135.89L620.616 140.495" stroke="#6CA3B7" stroke-width="1.1669" stroke-linecap="round" stroke-linejoin="round"/>
<path fill-rule="evenodd" clip-rule="evenodd" d="M509.453 2.93554C509.453 2.93554 546.875 -7.67863 561.023 18.2853C575.171 44.2492 562.855 72.0746 527.959 66.1633C522.211 65.2162 517.064 63.8119 512.516 62.081L494.168 70.8989L497.989 54.0795C477.083 37.5541 482.61 10.9697 509.453 2.93554Z" fill="#DE7773"/>
<path fill-rule="evenodd" clip-rule="evenodd" d="M548.486 47.7113L532.633 12.1783C532.633 12.1783 531.117 8.12857 528.401 10.48C525.685 12.8315 505.127 44.8046 505.127 44.8046C505.127 44.8046 501.906 49.1156 508.537 50.422C515.169 51.7283 546.623 52.3162 546.623 52.3162C546.623 52.3162 550.886 53.3939 548.486 47.7113Z" fill="white"/>
<path fill-rule="evenodd" clip-rule="evenodd" d="M532.349 21.3221L526.159 20.9302L526.222 36.7371L530.328 36.9984L532.349 21.3221ZM527.738 45.5224C528.654 45.5877 529.443 45.3264 530.075 44.7712C530.738 44.1834 531.086 43.4649 531.117 42.5831C531.18 41.7339 530.928 40.9828 530.359 40.3623C529.791 39.7417 529.065 39.3825 528.117 39.3172C527.201 39.2518 526.412 39.5131 525.78 40.0357C525.149 40.5909 524.801 41.3094 524.738 42.1912C524.675 43.0403 524.928 43.8241 525.528 44.4446C526.096 45.0978 526.822 45.4571 527.738 45.5224Z" fill="#DE7773"/>
<path fill-rule="evenodd" clip-rule="evenodd" d="M609.027 304.737C618.974 304.672 641.302 303.039 650.681 289.845C662.871 272.634 650.333 253.757 624.438 253.038C564.183 251.405 563.898 299.218 597.058 304.182L602.521 316.527L609.027 304.737Z" fill="white" stroke="black" stroke-width="1.1669" stroke-linecap="round" stroke-linejoin="round"/>
<path fill-rule="evenodd" clip-rule="evenodd" d="M599.301 278.676C601.038 278.676 602.427 280.178 602.427 282.007C602.427 283.836 601.038 285.338 599.301 285.338C597.564 285.338 596.143 283.836 596.143 282.007C596.143 280.178 597.564 278.676 599.301 278.676ZM632.586 273.548C634.323 273.548 635.713 275.05 635.713 276.879C635.713 278.708 634.323 280.211 632.586 280.211C630.849 280.211 629.428 278.708 629.428 276.879C629.428 275.05 630.849 273.548 632.586 273.548ZM615.596 276.422C617.333 276.422 618.754 277.892 618.754 279.753C618.754 281.582 617.333 283.052 615.596 283.052C613.859 283.052 612.47 281.582 612.47 279.753C612.47 277.892 613.859 276.422 615.596 276.422Z" fill="black"/>
<path fill-rule="evenodd" clip-rule="evenodd" d="M206.631 187.883C218.821 170.672 206.284 151.795 180.388 151.076C140.439 149.998 126.86 170.639 131.912 186.119L125.123 198.856L139.207 196.472C142.776 199.313 147.418 201.404 153.04 202.22C170.156 202.971 195.547 203.494 206.631 187.883Z" fill="white" stroke="black" stroke-width="1.1669" stroke-linecap="round" stroke-linejoin="round"/>
<path fill-rule="evenodd" clip-rule="evenodd" d="M155.251 176.714C156.988 176.714 158.378 178.216 158.378 180.045C158.378 181.874 156.988 183.344 155.251 183.344C153.514 183.344 152.093 181.874 152.093 180.045C152.093 178.216 153.514 176.714 155.251 176.714ZM188.537 171.586C190.274 171.586 191.663 173.089 191.663 174.918C191.663 176.747 190.274 178.249 188.537 178.249C186.8 178.249 185.379 176.747 185.379 174.918C185.379 173.089 186.8 171.586 188.537 171.586ZM171.578 174.46C173.315 174.46 174.705 175.93 174.705 177.792C174.705 179.621 173.315 181.09 171.578 181.09C169.841 181.09 168.42 179.621 168.42 177.792C168.42 175.93 169.841 174.46 171.578 174.46Z" fill="black"/>
<path fill-rule="evenodd" clip-rule="evenodd" d="M178.399 25.404L172.715 92.159L226.685 82.1327L231.801 15.0185L178.399 25.404Z" fill="#DE7773"/>
<path fill-rule="evenodd" clip-rule="evenodd" d="M182.694 30.4667L181.083 48.4291L225.106 40.2317L226.496 21.9427L182.694 30.4667Z" fill="white"/>
<path d="M187.527 51.8908L186.958 58.6838L180.389 59.5003" stroke="black" stroke-width="1.1669" stroke-linecap="round" stroke-linejoin="round"/>
<path d="M198.863 50.355L198.295 57.1154L191.726 57.9319" stroke="black" stroke-width="1.1669" stroke-linecap="round" stroke-linejoin="round"/>
<path d="M210.453 47.8743L209.884 54.6674L203.315 55.4838" stroke="black" stroke-width="1.1669" stroke-linecap="round" stroke-linejoin="round"/>
<path d="M221.759 45.4242L221.19 52.2173L214.621 53.0338" stroke="black" stroke-width="1.1669" stroke-linecap="round" stroke-linejoin="round"/>
<path d="M186.958 63.3874L186.389 70.1478L179.82 70.9969" stroke="black" stroke-width="1.1669" stroke-linecap="round" stroke-linejoin="round"/>
<path d="M198.294 61.8188L197.726 68.6119L191.157 69.4284" stroke="black" stroke-width="1.1669" stroke-linecap="round" stroke-linejoin="round"/>
<path d="M209.884 59.3699L209.315 66.1303L202.747 66.9467" stroke="black" stroke-width="1.1669" stroke-linecap="round" stroke-linejoin="round"/>
<path d="M221.19 56.9198L220.621 63.7129L214.053 64.5293" stroke="black" stroke-width="1.1669" stroke-linecap="round" stroke-linejoin="round"/>
<path d="M186.358 74.5891L185.79 81.3822L179.221 82.1986" stroke="black" stroke-width="1.1669" stroke-linecap="round" stroke-linejoin="round"/>
<path d="M197.664 73.0533L197.096 79.8137L190.527 80.6629" stroke="black" stroke-width="1.1669" stroke-linecap="round" stroke-linejoin="round"/>
<path d="M209.253 70.5705L208.685 77.3635L202.116 78.18" stroke="black" stroke-width="1.1669" stroke-linecap="round" stroke-linejoin="round"/>
<path d="M220.558 68.1543L219.99 74.9147L213.453 75.7638" stroke="black" stroke-width="1.1669" stroke-linecap="round" stroke-linejoin="round"/>
<path fill-rule="evenodd" clip-rule="evenodd" d="M349.533 165.869L334.595 182.133C334.595 182.133 303.836 144.64 300.078 138.141C296.32 131.642 295.057 129.062 295.057 129.062C295.057 129.062 294.615 114.072 295.846 108.422C297.109 102.739 301.278 95.5539 300.299 93.529C299.32 91.5369 295.625 90.4264 292.372 95.064C289.12 99.7343 285.993 106.037 285.993 106.037C285.993 106.037 270.361 86.2461 265.845 83.9926C261.361 81.7392 258.613 83.9273 258.613 83.9273C258.613 83.9273 255.771 80.5634 251.697 83.2088C247.655 85.8868 253.244 90.1325 257.476 97.4481C261.676 104.764 264.487 111.361 264.487 111.361C264.487 111.361 249.613 95.6519 246.107 94.5415C242.633 93.4311 239.665 96.3051 243.486 100.975C247.307 105.646 249.613 108.291 252.613 112.243C255.645 116.194 257.066 119.33 257.066 119.33C257.066 119.33 247.086 114.006 241.37 113.549C235.686 113.059 237.612 118.774 240.297 119.624C242.981 120.44 255.708 128.05 261.392 132.655C267.108 137.259 270.203 140.917 270.203 140.917L309.994 208.75C313.657 214.955 323.7 225.504 341.132 216.98C358.596 208.489 380.734 190.559 380.734 190.559L349.533 165.869Z" fill="white" stroke="black" stroke-width="1.1669" stroke-linecap="round" stroke-linejoin="round"/>
<path fill-rule="evenodd" clip-rule="evenodd" d="M306.205 536.483C306.205 536.483 302.668 572.539 297.552 589.293C292.468 606.047 286.025 624.891 305.542 622.572C325.09 620.286 334.627 597.327 338.859 582.859C343.059 568.391 345.08 558.985 345.08 558.985L342.617 530.964L306.205 536.483Z" fill="white" stroke="black" stroke-width="1.1669" stroke-linecap="round" stroke-linejoin="round"/>
<path fill-rule="evenodd" clip-rule="evenodd" d="M342.743 536.09C342.743 536.09 341.101 557.874 337.343 578.481C333.585 599.089 323.763 627.796 343.375 626.229C363.018 624.661 374.229 595.66 377.702 576.032C381.145 556.404 381.997 549.023 381.997 549.023L380.292 524.725L342.743 536.09Z" fill="white" stroke="black" stroke-width="1.1669" stroke-linecap="round" stroke-linejoin="round"/>
<path fill-rule="evenodd" clip-rule="evenodd" d="M476.579 272.826C478.632 272.369 481.601 296.406 479.769 319.072C477.937 341.737 461.294 360.124 443.704 374.037C426.146 387.949 388.502 401.895 388.502 401.895C387.302 444.58 383.828 488.147 383.26 530.473C379.628 548.207 347.606 553.53 340.468 538.246C340.468 538.246 330.331 546.149 317.32 546.378C304.309 546.639 300.993 540.499 300.993 540.499C297.204 507.742 269.571 373.775 291.361 345.917C316.31 314.107 357.869 293.663 386.323 281.416L476.579 272.826Z" fill="#D7F0F7"/>
<path d="M346.911 343.925C344.29 345.558 323.984 358.916 326.605 392.293C329.226 425.704 339.995 532.76 340.185 534.491" stroke="black" stroke-width="1.1669" stroke-linecap="round" stroke-linejoin="round"/>
<path fill-rule="evenodd" clip-rule="evenodd" d="M443.073 135.398L466.411 126.254C466.411 126.254 490.886 131.871 499.444 152.969C507.97 174.099 510.623 187.196 510.623 187.196L479.232 203.003C479.232 203.003 469.095 233.539 473.643 253.134C478.222 272.729 480.369 273.546 477.874 278.739C475.348 283.931 463.505 297.126 428.357 301.861C393.239 306.564 378.397 289.124 377.26 286.512C376.123 283.931 382.376 255.714 382.155 243.467C381.934 231.187 380.323 219.626 380.323 219.626C380.323 219.626 372.239 213.747 369.617 208.195C366.996 202.643 370.628 190.037 370.628 190.037L344.258 168.351C344.258 168.351 355.69 151.924 362.986 144.249C370.281 136.574 378.555 130.206 391.25 127.658C391.25 127.658 393.145 127.495 396.429 127.266C412.251 127.332 443.073 135.398 443.073 135.398Z" fill="black" stroke="black" stroke-width="0.466762" stroke-linecap="round" stroke-linejoin="round"/>
<path d="M341.385 190.233L334.596 182.134" stroke="black" stroke-width="1.1669" stroke-linecap="round" stroke-linejoin="round"/>
<path d="M274.657 122.695C274.657 122.695 280.467 117.012 282.583 113.191C284.699 109.337 285.994 106.038 285.994 106.038" stroke="black" stroke-width="1.1669" stroke-linecap="round" stroke-linejoin="round"/>
<path d="M273.582 106.299C270.109 100.355 264.266 90.7535 258.613 83.9278" stroke="black" stroke-width="1.1669" stroke-linecap="round" stroke-linejoin="round"/>
<path d="M379.312 156.235C379.312 156.235 378.333 166.555 376.754 172.924C375.807 176.614 374.102 181.186 372.807 184.419" stroke="white" stroke-width="1.1669" stroke-linecap="round" stroke-linejoin="round"/>
<path fill-rule="evenodd" clip-rule="evenodd" d="M274.53 242.781L270.74 246.504L296.225 332.757L414.304 350.393L472.475 302.972L401.956 295.558L391.092 258.752L274.53 242.781Z" fill="#DE7773"/>
<path d="M274.593 247.027L387.524 262.605L412.851 346.343" stroke="white" stroke-width="1.1669" stroke-linecap="round" stroke-linejoin="round"/>
<path fill-rule="evenodd" clip-rule="evenodd" d="M376.534 64.7895C378.113 73.5095 379.755 80.9884 381.65 87.1609C383.166 91.6026 385.598 96.9913 389.198 101.629C396.903 111.492 408.462 110.937 408.462 110.937L409.156 122.727L391.25 127.658C391.25 127.658 380.166 168.972 415.536 167.077C450.906 165.183 466.412 126.254 466.412 126.254L440.168 120.375C440.168 120.375 437.547 101.237 437.326 94.7705C437.105 88.2713 437.547 83.7971 437.547 83.7971C437.547 83.7971 444.4 82.9153 446.232 74.1627C448.032 65.4427 445.158 60.8051 443.895 59.3028C460.695 1.10452 363.176 -9.1504 376.534 64.7895Z" fill="white"/>
<path fill-rule="evenodd" clip-rule="evenodd" d="M408.461 110.937C408.461 110.937 396.902 111.492 389.197 101.629C385.597 96.9913 383.165 91.6026 381.649 87.161C379.754 80.9884 378.112 73.5095 376.533 64.7896C375.807 60.8378 375.428 57.1474 375.333 53.6855C375.68 52.8364 382.154 37.3887 396.429 31.3468C396.429 31.3468 396.176 44.2144 407.355 51.0728C418.535 57.8985 428.23 57.4413 428.23 57.4413C428.23 57.4413 428.072 63.4506 428.767 67.2717C429.43 71.1254 431.483 73.0523 431.83 72.7584C432.177 72.4644 430.756 62.6668 436.283 59.4988C441.809 56.2983 443.894 59.3029 443.894 59.3029C445.157 60.8052 448.031 65.4428 446.231 74.1627C444.399 82.9153 437.546 83.7971 437.546 83.7971C437.546 83.7971 437.104 88.2714 437.325 94.7705C437.514 100.094 439.315 113.974 439.946 118.742C459.242 113.255 469.189 102.119 469.189 102.119C468.716 73.5095 457.915 -11.3058 414.966 8.09361C414.966 8.09361 400.818 -2.97778 386.197 9.85719C371.606 22.7248 365.543 46.5659 362.827 73.085C360.08 99.6367 354.711 115.672 354.711 115.672C354.711 115.672 359.006 117.697 362.543 113.451C366.08 109.206 371.196 96.7954 371.196 96.7954C371.196 96.7954 369.27 116.979 372.68 119.591C375.017 121.355 391.439 123.119 409.155 122.629L408.461 110.937Z" fill="#DE7773"/>
<path d="M436.914 77.723C436.914 77.723 435.714 73.7713 437.23 67.9906C438.778 62.21 442.251 63.2551 442.251 63.2551" stroke="black" stroke-width="1.1669" stroke-linecap="round" stroke-linejoin="round"/>
<path d="M441.779 72.5626L437.042 68.8068" stroke="black" stroke-width="1.1669" stroke-linecap="round" stroke-linejoin="round"/>
<path fill-rule="evenodd" clip-rule="evenodd" d="M383.702 66.4553C385.029 65.9654 386.513 66.8472 387.018 68.3821C387.555 69.9498 386.923 71.5827 385.597 72.0726C384.271 72.5298 382.786 71.648 382.281 70.1131C381.744 68.5454 382.376 66.9125 383.702 66.4553ZM407.103 67.5983C408.43 67.1084 409.914 67.9902 410.451 69.5579C410.956 71.0928 410.324 72.7258 409.03 73.2157C407.703 73.6729 406.219 72.8238 405.682 71.2561C405.177 69.7212 405.808 68.0555 407.103 67.5983Z" fill="black"/>
<path d="M394.755 67.01C394.755 67.01 394.25 75.7952 393.745 79.649C393.239 83.4701 392.545 86.0175 392.545 86.0175C394.597 86.5727 397.155 86.5727 399.334 85.8869" stroke="black" stroke-width="1.1669" stroke-linecap="round" stroke-linejoin="round"/>
<path d="M385.819 78.5372C390.906 76.0308 392.912 69.3207 390.297 63.5496C387.683 57.7785 381.44 55.132 376.352 57.6383C371.264 60.1447 369.259 66.8548 371.873 72.6259C374.487 78.3969 380.731 81.0435 385.819 78.5372Z" stroke="black" stroke-width="1.58139" stroke-linecap="round" stroke-linejoin="round"/>
<path d="M414.13 78.5066C419.218 76.0002 421.223 69.2901 418.609 63.519C415.995 57.748 409.751 55.1014 404.663 57.6077C399.576 60.1141 397.571 66.8242 400.185 72.5953C402.799 78.3664 409.042 81.0129 414.13 78.5066Z" stroke="black" stroke-width="1.58139" stroke-linecap="round" stroke-linejoin="round"/>
<path d="M433.6 62.3076L419.673 67.3044" stroke="black" stroke-width="1.1669" stroke-linecap="round" stroke-linejoin="round"/>
<path d="M391.44 68.1208L399.082 68.318" stroke="black" stroke-width="1.1669" stroke-linecap="round" stroke-linejoin="round"/>
<path d="M429.967 96.698C426.177 104.144 419.419 108.717 411.493 110.48" stroke="black" stroke-width="1.1669" stroke-linecap="round" stroke-linejoin="round"/>
<path d="M405.808 99.4753C407.422 98.9184 408.264 96.8357 407.688 94.8233C407.112 92.8109 405.337 91.6309 403.723 92.1878C402.108 92.7447 401.267 94.8274 401.843 96.8398C402.419 98.8522 404.194 100.032 405.808 99.4753Z" fill="black" stroke="black" stroke-width="1.43924" stroke-linecap="round" stroke-linejoin="round"/>
<path d="M398.956 92.3556L404.103 92.0928" stroke="black" stroke-width="1.1669" stroke-linecap="round" stroke-linejoin="round"/>
<path d="M466.444 182.264L472.949 203.263" stroke="white" stroke-width="1.1669" stroke-linecap="round" stroke-linejoin="round"/>
<path fill-rule="evenodd" clip-rule="evenodd" d="M476.834 203.949L484.539 237.065L446.201 283.768C446.201 283.768 421.789 293.075 418.473 296.407C415.189 299.705 408.683 306.727 407.862 307.739C407.073 308.752 408.778 310.45 410.262 310.744C411.747 311.038 412.947 310.744 412.947 310.744C412.947 310.744 408.147 319.301 408.968 321.293C409.757 323.318 413.578 321.489 413.578 321.489C413.578 321.489 413.926 324.787 415.789 324.918C417.684 325.016 420.526 322.305 420.526 322.305C420.526 322.305 421.094 325.016 424.253 324.493C427.379 323.971 428.958 320.705 428.958 320.705C428.958 320.705 430.979 325.506 435.59 320.672C446.548 309.176 443.201 314.532 454.57 305.192C460.065 300.718 463.254 296.603 463.254 296.603C463.254 296.603 514.793 267.112 516.277 242.911C517.762 218.744 508.256 188.371 508.256 188.371L476.834 203.949Z" fill="white" stroke="black" stroke-width="1.1669" stroke-linecap="round" stroke-linejoin="round"/>
<path d="M439.789 306.727C437.831 308.131 432.462 313.52 428.957 320.705" stroke="black" stroke-width="1.1669" stroke-linecap="round" stroke-linejoin="round"/>
<path d="M433.031 305.062C428.957 308.556 422.83 316.133 420.525 322.306" stroke="black" stroke-width="1.1669" stroke-linecap="round" stroke-linejoin="round"/>
<path d="M427.314 304.115C420.493 310.059 416.861 314.598 413.577 321.489" stroke="black" stroke-width="1.1669" stroke-linecap="round" stroke-linejoin="round"/>
<path d="M421.851 301.6C418.851 304.05 414.998 307.479 412.945 310.745" stroke="black" stroke-width="1.1669" stroke-linecap="round" stroke-linejoin="round"/>
<path d="M413.199 9.62839C413.199 9.62839 408.809 11.3593 404.356 15.9316C399.903 20.5365 397.63 25.9252 397.63 25.9252" stroke="white" stroke-width="1.1669" stroke-linecap="round" stroke-linejoin="round"/>
<path d="M408.367 28.6358C408.367 28.6358 411.083 41.3728 423.967 46.2063C436.884 51.0398 441.431 49.7335 441.431 49.7335" stroke="white" stroke-width="1.1669" stroke-linecap="round" stroke-linejoin="round"/>
<path d="M423.398 31.8046C423.398 31.8046 425.451 37.9445 433.093 40.1979C440.736 42.4188 444.052 42.68 444.052 42.68" stroke="white" stroke-width="1.1669" stroke-linecap="round" stroke-linejoin="round"/>
<path d="M439.157 33.3382C439.157 33.3382 443.483 34.0567 446.894 37.1266C450.336 40.1966 451.599 41.7316 451.599 41.7316" stroke="white" stroke-width="1.1669" stroke-linecap="round" stroke-linejoin="round"/>
<path d="M456.716 80.5318C456.716 80.5318 458.074 87.2595 458.074 93.1708C458.074 99.0494 458.074 99.0494 458.074 99.0494V98.4615" stroke="white" stroke-width="1.1669" stroke-linecap="round" stroke-linejoin="round"/>
<path d="M450.558 85.8546C450.558 85.8546 451.032 90.4269 451.475 93.3988C451.917 96.3381 451.917 96.5668 451.917 96.5668" stroke="white" stroke-width="1.1669" stroke-linecap="round" stroke-linejoin="round"/>
<path d="M381.333 104.732L381.207 111.688" stroke="white" stroke-width="1.1669" stroke-linecap="round" stroke-linejoin="round"/>
<path d="M491.391 237.066H484.538" stroke="black" stroke-width="1.1669" stroke-linecap="round" stroke-linejoin="round"/>
<path d="M408.84 116.358L409.282 122.89L398.071 125.992M452.547 123.249L440.136 120.473C440.136 120.473 437.546 101.237 437.325 94.7702C437.104 88.2711 437.546 83.7968 437.546 83.7968C437.546 83.7968 444.399 82.915 446.23 74.1624C448.031 65.4425 445.157 60.8049 443.894 59.3026" stroke="black" stroke-width="1.1669" stroke-linecap="round" stroke-linejoin="round"/>
<path d="M387.207 435.241C387.712 424.071 388.186 412.935 388.502 401.896C388.502 401.896 426.146 387.951 443.704 374.038C461.294 360.125 477.937 341.738 479.769 319.073C481.601 296.407 479.516 286.087 479.516 286.087M299.667 336.382C296.73 339.452 293.951 342.62 291.361 345.918C282.834 356.827 281.887 383.999 284.098 414.992L299.667 336.382Z" stroke="black" stroke-width="1.1669" stroke-linecap="round" stroke-linejoin="round"/>
<path fill-rule="evenodd" clip-rule="evenodd" d="M526.222 344.418C526.222 344.418 519.054 348.533 514.253 358.919C509.485 369.304 506.611 384.523 506.611 384.523C506.611 384.523 493.947 399.285 493.031 402.225C492.116 405.164 502.727 407.123 502.727 407.123C502.727 407.123 500.737 413.851 500.863 414.602C500.958 415.386 517.632 416.497 518.99 417.215C518.927 418.717 505.695 425.216 503.295 426.882C500.895 428.515 505.411 433.708 505.411 433.708C505.411 433.708 499.726 452.585 505.632 454.838C511.569 457.092 536.328 452.846 536.328 452.846L537.812 472.539L585.372 462.611L581.74 424.857C581.74 424.857 605.678 396.313 597.246 367.541C588.783 338.768 548.644 330.734 526.222 344.418Z" fill="white" stroke="black" stroke-width="1.1669" stroke-linecap="round" stroke-linejoin="round"/>
<path d="M520.532 391.598C522.309 391.779 523.927 390.079 524.145 387.801C524.363 385.522 523.099 383.527 521.322 383.345C519.545 383.163 517.927 384.863 517.709 387.142C517.491 389.421 518.755 391.416 520.532 391.598Z" fill="black"/>
<path d="M517.443 373.714C517.443 373.714 519.622 372.375 523.601 373.322C527.612 374.269 528.559 376.392 528.559 376.392" stroke="black" stroke-width="1.1669" stroke-linecap="round" stroke-linejoin="round"/>
<path fill-rule="evenodd" clip-rule="evenodd" d="M326.572 428.645C326.572 428.645 343.404 527.928 341.478 528.124C339.583 528.32 471.525 496.968 471.525 496.968L457.283 397.26L326.572 428.645Z" fill="#DE7773"/>
<path fill-rule="evenodd" clip-rule="evenodd" d="M511.222 331.224C509.169 347.03 517.506 351.048 525.37 353.464C533.233 355.881 546.655 355.783 545.834 366.169C545.044 376.522 541.855 377.599 544.57 383.249C547.318 388.932 543.339 399.056 547.444 399.905C551.55 400.722 551.202 388.703 563.077 393.276C574.919 397.88 569.108 414.635 563.645 419.109C558.15 423.616 557.139 422.538 558.497 428.907C559.887 435.275 563.392 444.354 568.54 444.713C573.687 445.073 572.077 440.37 578.582 440.827C585.088 441.284 586.225 439.423 590.204 430.67C594.215 421.95 602.994 422.081 606.626 415.353C610.289 408.625 608.457 401.44 612.342 394.811C616.226 388.213 627.974 379.722 624.311 370.578C620.679 361.433 613.479 355.065 613.605 350.819C613.7 346.573 613.668 334.13 604.826 333.771C595.983 333.412 586.099 338.147 579.309 330.048C572.551 321.981 566.771 313 558.782 318.323C544.413 327.86 514.285 307.676 511.222 331.224Z" fill="black" stroke="black" stroke-width="0.466762" stroke-linecap="round" stroke-linejoin="round"/>
<path d="M555.845 415.451C555.845 415.451 553.571 407.254 556.982 402.42C560.424 397.587 564.687 400.82 564.687 400.82" stroke="black" stroke-width="1.1669" stroke-linecap="round" stroke-linejoin="round"/>
<path d="M562.478 410.226L556.351 403.498" stroke="black" stroke-width="1.1669" stroke-linecap="round" stroke-linejoin="round"/>
<path fill-rule="evenodd" clip-rule="evenodd" d="M486.873 510.912C486.873 510.912 468.083 508.397 466.062 506.405C464.041 504.413 462.304 500.004 465.493 496.869C468.715 493.733 476.831 486.157 476.831 486.157C476.831 486.157 462.525 475.379 458.167 471.917C453.777 468.455 448.377 465.092 449.324 461.793C450.303 458.462 457.946 462.609 463.978 465.124C470.009 467.639 482.799 473.648 482.799 473.648C482.799 473.648 484.947 470.546 487.568 469.599C490.221 468.651 491.073 469.696 492.273 469.011C493.505 468.325 495.937 464.765 497.768 465.614C499.6 466.463 500.769 467.378 502.6 466.137C504.4 464.863 507.716 464.667 510.495 466.725C513.274 468.749 526.538 488.508 526.285 486.81C526.001 485.079 486.873 510.912 486.873 510.912Z" fill="white" stroke="black" stroke-width="1.1669" stroke-linecap="round" stroke-linejoin="round"/>
<path d="M339.205 434.785L428.861 413.785" stroke="black" stroke-width="1.1669" stroke-linecap="round" stroke-linejoin="round"/>
<path d="M437.925 408.592L446.925 414.112" stroke="black" stroke-width="1.1669" stroke-linecap="round" stroke-linejoin="round"/>
<path d="M445.472 406.535L439.156 416.169" stroke="black" stroke-width="1.1669" stroke-linecap="round" stroke-linejoin="round"/>
<path fill-rule="evenodd" clip-rule="evenodd" d="M342.426 448.143L351.647 504.055L399.554 492.951L390.522 436.679L342.426 448.143Z" fill="white"/>
<path fill-rule="evenodd" clip-rule="evenodd" d="M403.787 433.381L404.924 439.521L449.989 428.547L448.947 422.179L403.787 433.381Z" fill="white"/>
<path fill-rule="evenodd" clip-rule="evenodd" d="M406.755 449.286L407.892 455.426L438.02 448.111L436.978 441.742L406.755 449.286Z" fill="white"/>
<path d="M410.229 466.627L447.241 457.776" stroke="white" stroke-width="1.1669" stroke-linecap="round" stroke-linejoin="round"/>
<path d="M412.281 476.327L443.356 468.718" stroke="white" stroke-width="1.1669" stroke-linecap="round" stroke-linejoin="round"/>
<path d="M413.828 486.485L449.23 477.863" stroke="white" stroke-width="1.1669" stroke-linecap="round" stroke-linejoin="round"/>
<path fill-rule="evenodd" clip-rule="evenodd" d="M379.375 521.07C379.375 521.07 369.458 509.509 365.006 494.29C360.553 479.071 359.763 467.281 356.005 468.097C352.216 468.914 350.984 474.335 350.984 480.965C350.984 487.562 351.868 493.114 351.868 493.114L334.752 478.319L333.331 469.534C333.331 469.534 324.267 472.604 322.562 476.621C320.856 480.638 323.351 487.823 323.351 487.823C323.351 487.823 320.383 489.521 320.383 493.702C320.383 497.915 323.825 501.671 323.825 501.671C323.825 501.671 321.52 504.806 321.741 507.68C321.993 510.586 324.772 513.885 324.772 513.885C324.772 513.885 322.878 523.715 328.309 527.863C333.741 532.011 349.405 545.074 349.405 545.074L379.375 521.07Z" fill="white" stroke="black" stroke-width="1.1669" stroke-linecap="round" stroke-linejoin="round"/>
<path fill-rule="evenodd" clip-rule="evenodd" d="M467.073 527.538C467.073 527.538 481.442 499.712 499.38 491.319C504.243 489.065 513.149 486.355 523.981 483.644C523.981 483.644 525.876 471.429 530.77 469.437C535.697 467.445 580.415 460.227 580.415 460.227C580.415 460.227 592.478 457.288 595.226 460.129C597.973 462.938 601.637 468.817 601.637 468.817C605.079 468.392 608.047 468.098 610.353 467.968C631.101 466.792 648.912 472.442 653.712 505.95C657.913 535.506 653.997 620.028 652.986 639.623H414.555C386.796 610.491 368.953 586.977 343.847 544.977C345.931 517.577 373.28 512.09 378.933 517.152L446.672 577.571C446.672 577.571 464.01 532.6 467.073 527.538Z" fill="#DE7773"/>
<path d="M437.356 602.685L446.672 577.571" stroke="black" stroke-width="1.1669" stroke-linecap="round" stroke-linejoin="round"/>
<path d="M517.443 570.581L494.168 639.622" stroke="black" stroke-width="1.1669" stroke-linecap="round" stroke-linejoin="round"/>
<path d="M349.626 554.546C349.626 554.546 350.352 539.523 361.5 530.411C372.679 521.299 385.754 523.259 385.754 523.259" stroke="#A94D4D" stroke-width="1.1669" stroke-linecap="round" stroke-linejoin="round"/>
<path d="M345.111 537.661L351.616 545.237" stroke="#A94D4D" stroke-width="1.1669" stroke-linecap="round" stroke-linejoin="round"/>
<path d="M348.836 529.236L356.036 536.388" stroke="#A94D4D" stroke-width="1.1669" stroke-linecap="round" stroke-linejoin="round"/>
<path d="M355.152 522.148L362.163 529.888" stroke="#A94D4D" stroke-width="1.1669" stroke-linecap="round" stroke-linejoin="round"/>
<path d="M363.047 517.478L369.489 525.643" stroke="#A94D4D" stroke-width="1.1669" stroke-linecap="round" stroke-linejoin="round"/>
<path d="M372.047 515.484L377.953 523.388" stroke="#A94D4D" stroke-width="1.1669" stroke-linecap="round" stroke-linejoin="round"/>
<path d="M330.71 475.348L334.752 478.32" stroke="black" stroke-width="1.1669" stroke-linecap="round" stroke-linejoin="round"/>
<path d="M486.528 475.348L482.801 473.65" stroke="black" stroke-width="1.1669" stroke-linecap="round" stroke-linejoin="round"/>
<path d="M561.308 334.849C561.308 334.849 568.572 334.195 572.835 337.102C577.067 340.009 578.646 345.365 578.646 345.365" stroke="white" stroke-width="1.1669" stroke-linecap="round" stroke-linejoin="round"/>
<path d="M590.899 387.136C590.899 387.136 592.384 395.497 590.426 399.057C588.499 402.584 586.005 404.119 586.005 404.119" stroke="white" stroke-width="1.1669" stroke-linecap="round" stroke-linejoin="round"/>
<path d="M599.519 394.843C599.519 394.843 602.835 388.116 602.267 383.184C601.698 378.22 598.635 374.138 598.635 374.138" stroke="white" stroke-width="1.1669" stroke-linecap="round" stroke-linejoin="round"/>
<path d="M561.372 346.443C559.857 342.491 553.699 341.446 549.593 342.491" stroke="white" stroke-width="1.1669" stroke-linecap="round" stroke-linejoin="round"/>
<path d="M533.518 481.815C558.53 476.23 576.404 472.931 601.637 468.816" stroke="#A94D4D" stroke-width="1.1669" stroke-linecap="round" stroke-linejoin="round"/>
<path d="M56.12 241.476L52.7094 208.915M52.7094 208.915C48.1934 206.76 37.993 201.143 36.0034 193.729C33.4138 184.16 41.3089 181.645 41.3089 181.645L52.7094 208.915ZM109.112 141.246C109.112 141.246 116.312 177.791 116.944 192.129C117.575 206.499 113.533 217.211 108.733 221.456C103.901 225.735 96.2901 226.943 96.2901 226.943" stroke="black" stroke-width="1.1669" stroke-linecap="round" stroke-linejoin="round"/>
<path fill-rule="evenodd" clip-rule="evenodd" d="M49.9611 460.324C49.9611 460.324 56.5614 511.533 74.8148 555.394C87.0363 584.754 105.574 622.541 116.501 644.357H254.917L193.241 428.71L49.9611 460.324Z" fill="black"/>
<path fill-rule="evenodd" clip-rule="evenodd" d="M60.7929 244.938L52.4557 243.73C52.4557 243.73 -0.251737 268.061 0.000905346 308.623C0.221967 349.219 6.60118 369.957 16.2016 385.764C25.7704 401.571 39.9183 409.376 39.9183 409.376L44.2448 462.447C44.2448 462.447 44.0238 474.956 52.8031 475.184C61.5824 475.446 126.606 475.903 161.976 461.272C197.346 446.64 200.283 440.272 199.146 432.009C198.009 423.746 184.777 373.256 184.777 373.256C184.777 373.256 216.483 361.237 211.715 333.15C206.915 305.096 181.493 262.966 162.197 247.747C142.933 232.528 104.121 236.676 104.121 236.676C104.121 236.676 83.278 254.246 60.7929 244.938Z" fill="#D7F0F7"/>
<path fill-rule="evenodd" clip-rule="evenodd" d="M109.112 141.246C109.112 141.246 116.312 177.792 116.944 192.129C117.575 206.499 113.533 217.211 108.733 221.457C103.901 225.735 96.2901 226.943 96.2901 226.943L99.1639 236.545L104.122 236.676C104.122 236.676 108.227 261.399 82.1106 264.73C55.9937 268.028 52.4567 243.73 52.4567 243.73L56.12 241.477L52.7094 208.916C48.1934 206.76 37.993 201.143 36.0034 193.729C33.4138 184.16 41.3089 181.645 41.3089 181.645C41.3089 181.645 24.3187 144.937 63.3519 132.461C102.354 119.985 109.112 141.246 109.112 141.246Z" fill="white"/>
<path fill-rule="evenodd" clip-rule="evenodd" d="M55.1084 180.992C55.3295 182.984 55.5505 184.715 55.6137 185.989C55.8979 191.116 53.1189 189.581 51.3819 186.38C49.645 183.18 45.9501 181.122 41.3078 181.645C41.3078 181.645 33.4128 184.16 36.0024 193.729C38.5919 203.33 52.7083 208.915 52.7083 208.915C52.7083 208.915 53.4662 216.394 54.2873 224.134C44.908 219.954 34.7392 208.491 24.7914 187.687C14.8436 166.883 16.4226 156.269 23.1808 141.964C29.939 127.627 40.3604 123.74 57.1927 120.311C74.025 116.882 94.1416 112.832 94.1416 112.832C112.742 109.828 120.48 104.014 123.701 109.436C126.953 114.857 118.648 120.54 118.648 120.54C118.648 120.54 129.89 120.54 131.185 126.549C132.48 132.558 117.227 136.543 117.227 136.543C117.227 136.543 126.29 140.919 124.206 144.806C122.153 148.659 110.721 149.77 110.721 149.77C110.721 149.77 105.953 149.737 97.4575 149.868C94.2679 149.9 90.352 149.574 86.1202 149.345C86.7202 150.423 86.8781 151.762 85.9307 153.264C83.3412 157.445 65.4667 153.787 65.4667 153.787C65.4667 153.787 63.6351 162.539 54.3821 161.462C52.9294 166.654 53.5294 173.349 55.1084 180.992Z" fill="black" stroke="black" stroke-width="0.466762" stroke-linecap="round" stroke-linejoin="round"/>
<path d="M80.2408 183.736C78.7851 184.097 77.2047 182.664 76.7109 180.535C76.2172 178.407 76.997 176.388 78.4527 176.027C79.9084 175.666 81.4888 177.099 81.9825 179.228C82.4763 181.356 81.6965 183.375 80.2408 183.736Z" fill="black"/>
<path d="M106.249 175.682C104.793 176.043 103.213 174.61 102.719 172.482C102.226 170.353 103.005 168.335 104.461 167.973C105.917 167.612 107.497 169.045 107.991 171.174C108.485 173.303 107.705 175.321 106.249 175.682Z" fill="black"/>
<path d="M94.3629 173.677C94.3629 173.677 100.963 188.308 99.4158 191.672C97.8367 195.036 93.3207 194.317 93.3207 194.317" stroke="black" stroke-width="1.1669" stroke-linecap="round" stroke-linejoin="round"/>
<path d="M40.1704 188.144C46.7707 188.993 52.171 195.1 53.1184 201.697" stroke="black" stroke-width="1.1669" stroke-linecap="round" stroke-linejoin="round"/>
<path d="M43.9613 196.406L48.5089 192.683" stroke="black" stroke-width="1.1669" stroke-linecap="round" stroke-linejoin="round"/>
<path d="M79.489 167.896C79.489 167.896 77.6258 167.929 74.6888 169.072C71.7518 170.215 70.4255 171.685 70.4255 171.685" stroke="black" stroke-width="1.1669" stroke-linecap="round" stroke-linejoin="round"/>
<path d="M107.184 161.364C103.837 160.809 100.458 162.181 97.7419 164.108" stroke="black" stroke-width="1.1669" stroke-linecap="round" stroke-linejoin="round"/>
<path d="M108.668 132.787C103.489 130.436 95.8152 128.313 85.9622 128.247" stroke="white" stroke-width="1.1669" stroke-linecap="round" stroke-linejoin="round"/>
<path d="M105.479 119.953C99.889 119.626 96.3521 119.528 89.7202 120.476" stroke="white" stroke-width="1.1669" stroke-linecap="round" stroke-linejoin="round"/>
<path d="M91.2678 138.599C88.173 137.195 84.2254 135.856 79.4252 135.007" stroke="white" stroke-width="1.1669" stroke-linecap="round" stroke-linejoin="round"/>
<path d="M40.6132 175.146C40.2971 172.565 40.0443 169.626 40.0759 166.654C40.0759 165.25 40.1391 163.813 40.2971 162.409" stroke="white" stroke-width="1.1669" stroke-linecap="round" stroke-linejoin="round"/>
<path d="M34.297 171.292C33.8862 167.504 33.6965 162.899 34.2022 158.588" stroke="white" stroke-width="1.1669" stroke-linecap="round" stroke-linejoin="round"/>
<path d="M26.6232 169.562C26.3072 167.014 26.1492 164.336 26.244 161.724" stroke="white" stroke-width="1.1669" stroke-linecap="round" stroke-linejoin="round"/>
<path d="M93.6363 211.756C95.6595 211.756 97.2996 209.68 97.2996 207.119C97.2996 204.558 95.6595 202.481 93.6363 202.481C91.6131 202.481 89.973 204.558 89.973 207.119C89.973 209.68 91.6131 211.756 93.6363 211.756Z" fill="black" stroke="black" stroke-width="1.1669" stroke-linecap="round" stroke-linejoin="round"/>
<path d="M98.9414 201.632C96.4781 201.24 93.478 201.992 92.2148 202.841" stroke="black" stroke-width="1.1669" stroke-linecap="round" stroke-linejoin="round"/>
<path fill-rule="evenodd" clip-rule="evenodd" d="M54.6972 314.306L47.1495 355.587C47.1495 355.587 38.9387 359.016 35.1806 359.963C31.4226 360.91 30.2857 358.494 30.2857 358.494C30.2857 358.494 27.3487 359.245 26.1487 357.645C24.9802 356.077 25.296 352.876 25.296 352.876C25.296 352.876 23.2433 352.125 22.9275 349.643C22.5801 347.161 23.5275 343.797 23.5275 343.797C23.5275 343.797 20.8116 332.595 31.2963 323.026C41.7809 313.49 54.6972 314.306 54.6972 314.306Z" fill="white"/>
<path d="M42.982 346.573C42.982 346.573 36.887 350.166 34.4869 352.746C32.0868 355.358 30.2867 358.494 30.2867 358.494" stroke="black" stroke-width="1.1669" stroke-linecap="round" stroke-linejoin="round"/>
<path d="M43.8975 333.771C43.8975 333.771 37.2972 338.082 33.1286 342.263C28.96 346.443 25.2967 352.877 25.2967 352.877" stroke="black" stroke-width="1.1669" stroke-linecap="round" stroke-linejoin="round"/>
<path d="M44.2443 324.136C44.2443 324.136 38.7178 325.442 33.5702 329.982C28.4542 334.521 23.5277 343.797 23.5277 343.797" stroke="black" stroke-width="1.1669" stroke-linecap="round" stroke-linejoin="round"/>
<path d="M184.778 373.255C184.778 373.255 168.861 379.819 144.45 379.362C120.07 378.872 98.3108 369.205 98.3108 369.205" stroke="black" stroke-width="1.1669" stroke-linecap="round" stroke-linejoin="round"/>
<path d="M191.472 324.039L102.195 324.594" stroke="black" stroke-width="1.1669" stroke-linecap="round" stroke-linejoin="round"/>
<path d="M156.102 275.31L170.471 324.168" stroke="black" stroke-width="1.1669" stroke-linecap="round" stroke-linejoin="round"/>
<path d="M43.1714 296.082L45.0978 315.547" stroke="black" stroke-width="1.1669" stroke-linecap="round" stroke-linejoin="round"/>
<path d="M63.4771 274.07C63.4771 274.07 79.8041 277.303 88.5202 279.36C97.2364 281.45 103.363 283.149 103.363 283.149" stroke="#6CA3B7" stroke-width="1.1669" stroke-linecap="round" stroke-linejoin="round"/>
<path d="M71.9093 267.211L70.5819 275.506" stroke="#6CA3B7" stroke-width="1.1669" stroke-linecap="round" stroke-linejoin="round"/>
<path d="M77.6898 268.484L76.5204 276.747" stroke="#6CA3B7" stroke-width="1.1669" stroke-linecap="round" stroke-linejoin="round"/>
<path d="M84.2577 269.889L83.1199 278.152" stroke="#6CA3B7" stroke-width="1.1669" stroke-linecap="round" stroke-linejoin="round"/>
<path d="M90.511 271.261L89.31 279.557" stroke="#6CA3B7" stroke-width="1.1669" stroke-linecap="round" stroke-linejoin="round"/>
<path d="M96.0368 272.502L95.3099 281.026" stroke="#6CA3B7" stroke-width="1.1669" stroke-linecap="round" stroke-linejoin="round"/>
<path d="M154.744 482.042V502.781L193.304 644.358" stroke="white" stroke-width="1.1669" stroke-linecap="round" stroke-linejoin="round"/>
<path d="M70.7089 486.876C70.7089 486.876 74.467 489.684 80.1514 492.069C85.8674 494.42 91.2361 496.053 91.2361 496.053" stroke="white" stroke-width="1.1669" stroke-linecap="round" stroke-linejoin="round"/>
<path d="M73.6464 499.972C73.6464 499.972 78.1624 502.715 80.4993 503.629C82.8363 504.511 83.6574 505.099 83.6574 505.099" stroke="white" stroke-width="1.1669" stroke-linecap="round" stroke-linejoin="round"/>
<path d="M69.919 219.431C69.919 219.431 74.1823 224.297 81.5721 226.159C88.9619 228.02 96.2885 226.942 96.2885 226.942" stroke="black" stroke-width="1.1669" stroke-linecap="round" stroke-linejoin="round"/>
<path d="M96.0364 269.497C106.553 265.578 113.469 251.698 113.469 236.185M45.9186 247.158C45.9186 247.158 50.403 264.173 64.0772 271.358L45.9186 247.158Z" stroke="#6CA3B7" stroke-width="1.1669" stroke-linecap="round" stroke-linejoin="round"/>
<path fill-rule="evenodd" clip-rule="evenodd" d="M69.1301 266.623L95.247 272.273C95.247 272.273 96.3839 265.545 96.3839 265.153C96.3839 264.729 110.374 256.303 111.29 253.167C112.174 250.032 110.09 247.321 110.09 247.321C110.09 247.321 111.606 244.839 110.879 242.325C110.121 239.777 109.237 239.255 109.237 239.255C109.237 239.255 110.469 236.054 109.237 234.454C107.974 232.886 106.111 232.429 106.111 232.429C106.111 232.429 109.932 226.877 109.427 224.428C108.921 221.945 104.721 223.48 104.721 223.48L85.4571 230.992C85.4571 230.992 77.8463 214.075 72.2566 216.426C67.1722 218.549 76.0778 228.739 76.0778 237.491C76.0778 246.211 69.1301 266.623 69.1301 266.623Z" fill="white" stroke="black" stroke-width="1.1669" stroke-linecap="round" stroke-linejoin="round"/>
<path d="M44.877 367.083L47.1507 355.587L54.6984 314.306L63.4777 274.07L65.3094 265.742L69.1306 266.623L95.2474 272.273L103.395 274.723C103.395 274.723 103.743 335.469 97.5844 374.17C91.4262 412.87 72.1307 417.573 61.425 417.933C50.6877 418.292 41.34 410.486 41.34 410.486" stroke="black" stroke-width="1.1669" stroke-linecap="round" stroke-linejoin="round"/>
<path fill-rule="evenodd" clip-rule="evenodd" d="M104.405 470.318L175.334 493.277L279.927 441.317L297.139 374.105L301.844 354.02L295.465 350.166L286.907 354.02C266.064 363.164 195.829 394.909 195.829 394.909L191.503 397.064C190.587 402.126 189.197 406.764 187.745 411.303L183.86 429.07L182.376 429.821L104.405 470.318Z" fill="#DE7773"/>
<path d="M176.534 488.15L197.408 400.298L297.644 355.751" stroke="white" stroke-width="1.1669" stroke-linecap="round" stroke-linejoin="round"/>
<path d="M182.881 432.695L171.639 482.859" stroke="black" stroke-width="1.1669" stroke-linecap="round" stroke-linejoin="round"/>
<path d="M157.711 450.592L181.87 437.202" stroke="black" stroke-width="1.1669" stroke-linecap="round" stroke-linejoin="round"/>
<path d="M169.27 477.699L160.902 474.989L168.923 470.025" stroke="black" stroke-width="1.1669" stroke-linecap="round" stroke-linejoin="round"/>
<path d="M157.396 474.106L150.133 472.048L159.102 467.019" stroke="black" stroke-width="1.1669" stroke-linecap="round" stroke-linejoin="round"/>
<path d="M146.375 470.972L139.87 468.882L149.217 463.983" stroke="black" stroke-width="1.1669" stroke-linecap="round" stroke-linejoin="round"/>
<path d="M170.154 466.857L162.922 464.767L171.86 459.77" stroke="black" stroke-width="1.1669" stroke-linecap="round" stroke-linejoin="round"/>
<path d="M159.164 463.721L152.627 461.631L161.975 456.699" stroke="black" stroke-width="1.1669" stroke-linecap="round" stroke-linejoin="round"/>
<path d="M172.965 455.851L166.428 453.794L175.775 448.862" stroke="black" stroke-width="1.1669" stroke-linecap="round" stroke-linejoin="round"/>
</svg>
