<?xml version="1.0" standalone="no"?><svg xmlns="http://www.w3.org/2000/svg" viewBox="0 0 1440 320"><path fill="#C3BEF0" fill-opacity="1" d="M0,192L15,192C30,192,60,192,90,165.3C120,139,150,85,180,106.7C210,128,240,224,270,261.3C300,299,330,277,360,256C390,235,420,213,450,197.3C480,181,510,171,540,160C570,149,600,139,630,138.7C660,139,690,149,720,138.7C750,128,780,96,810,80C840,64,870,64,900,80C930,96,960,128,990,160C1020,192,1050,224,1080,208C1110,192,1140,128,1170,122.7C1200,117,1230,171,1260,186.7C1290,203,1320,181,1350,192C1380,203,1410,245,1425,266.7L1440,288L1440,0L1425,0C1410,0,1380,0,1350,0C1320,0,1290,0,1260,0C1230,0,1200,0,1170,0C1140,0,1110,0,1080,0C1050,0,1020,0,990,0C960,0,930,0,900,0C870,0,840,0,810,0C780,0,750,0,720,0C690,0,660,0,630,0C600,0,570,0,540,0C510,0,480,0,450,0C420,0,390,0,360,0C330,0,300,0,270,0C240,0,210,0,180,0C150,0,120,0,90,0C60,0,30,0,15,0L0,0Z"></path></svg>